/vscmnt/brussel_pixiu_data/_data_brussel/112/vsc11236/PredSimResults/SUBJ10mtu3D/weighted-trackIG/worker_02.mot
version=1
nRows=4
nColumns=50
inDegrees=yes
endheader
                time	         pelvis_tilt	         pelvis_list	     pelvis_rotation	           pelvis_tx	           pelvis_ty	           pelvis_tz	       hip_flexion_r	     hip_adduction_r	      hip_rotation_r	        knee_angle_r	       ankle_angle_r	         mtp_angle_r	       hip_flexion_l	     hip_adduction_l	      hip_rotation_l	        knee_angle_l	       ankle_angle_l	         mtp_angle_l	    lumbar_extension	      lumbar_bending	     lumbar_rotation	 ercspn_r/activation	 intobl_r/activation	 extobl_r/activation	    abd_r/activation	    add_r/activation	hamstrings_r/activation	bifemsh_r/activation	glut_max_r/activation	iliopsoas_r/activation	rect_fem_r/activation	  vasti_r/activation	gastroc_r/activation	 soleus_r/activation	tib_ant_r/activation	 ercspn_l/activation	 intobl_l/activation	 extobl_l/activation	    abd_l/activation	    add_l/activation	hamstrings_l/activation	bifemsh_l/activation	glut_max_l/activation	iliopsoas_l/activation	rect_fem_l/activation	  vasti_l/activation	gastroc_l/activation	 soleus_l/activation	tib_ant_l/activation	
          1.13809582	         -4.18754454	         -2.93747537	          9.90988655	          1.28604827	          0.82919491	         -0.01385802	         27.88333572	         -0.72936894	         -7.68454775	         -3.40891142	          6.87128884	          0.25175211	        -13.37653280	         -3.23125288	          5.89990712	         -7.88869924	          9.71860439	         24.67499376	         -7.63147175	          1.16118841	         -3.70001644	          0.08989232	          0.16179144	          0.02097268	          0.01189682	          0.10821041	          0.03579970	          0.13710646	          0.00999999	          0.06871667	          0.01202412	          0.00999999	          0.01316070	          0.01000005	          0.25983674	          0.02905817	          0.00999999	          0.00999999	          0.04094066	          0.02455867	          0.02446448	          0.13077888	          0.03373008	          0.31035857	          0.01000000	          0.00999999	          0.24341399	          0.23658935	          0.01685236	
          1.14947677	         -4.25647236	         -2.74584404	          9.71213181	          1.30116517	          0.82755897	         -0.01344720	         27.93090925	         -0.49269838	         -6.55869568	         -4.93958121	          6.59197141	          0.25278457	        -13.46213634	         -3.00952140	          5.20368206	         -9.64517675	          9.19239978	         26.30426971	         -7.42641595	          1.51138637	         -3.87968855	          0.07555991	          0.13599546	          0.01762880	          0.00999999	          0.18768096	          0.03009182	          0.11764707	          0.06064804	          0.05776051	          0.01010700	          0.00999999	          0.01941758	          0.01415344	          0.26256978	          0.07898162	          0.00999999	          0.00999999	          0.03441309	          0.07321023	          0.02056387	          0.10992754	          0.02835217	          0.32755438	          0.01000000	          0.01000000	          0.20460414	          0.22263068	          0.01416543	
          1.16085773	         -4.30979161	         -2.56566622	          9.45793437	          1.31660835	          0.82602901	         -0.01300981	         27.79327107	         -0.29299724	         -5.40163084	         -6.43847373	          6.30070133	          0.24136930	        -13.40706235	         -2.78635984	          4.45322464	        -11.72226008	          8.57646671	         27.87861137	         -7.19808552	          1.89243485	         -4.03651125	          0.06518039	          0.11814061	          0.01481807	          0.05023438	          0.15775718	          0.04337180	          0.09888951	          0.06230288	          0.04855119	          0.00999999	          0.00999999	          0.01632165	          0.01189682	          0.29584310	          0.09187914	          0.00999999	          0.00999999	          0.02892628	          0.06499667	          0.01728520	          0.09240073	          0.02383171	          0.31356615	          0.01000000	          0.00999999	          0.17198212	          0.20628905	          0.01190689	
          1.17223869	         -4.34992502	         -2.39298969	          9.14610031	          1.33217195	          0.82476216	         -0.01247519	         27.50823955	         -0.08308307	         -4.32734199	         -7.68921912	          5.91193858	          0.23233491	        -13.14314866	         -2.56498595	          3.65311427	        -14.19405477	          7.82266872	         29.33462851	         -6.96961216	          2.28726033	         -4.16950041	          0.07896298	          0.09930431	          0.01245548	          0.09812999	          0.15988328	          0.04476486	          0.08312260	          0.07520228	          0.04081020	          0.00999999	          0.00999999	          0.01371933	          0.01000000	          0.31607055	          0.11301018	          0.00999999	          0.00999999	          0.02431428	          0.06758858	          0.01832007	          0.07766838	          0.02003199	          0.30085085	          0.00999999	          0.00999999	          0.14456134	          0.17472587	          0.01000846	
